<svg width="401" height="400" viewBox="0 0 401 400" fill="none" xmlns="http://www.w3.org/2000/svg">
<g opacity="0.1">
<path d="M377.48 210.62L353.82 196.97L330.45 210.62L353.97 224.19L377.48 210.62Z" fill="#DE6C84"/>
<path d="M306.93 169.87L306.79 224.23L353.97 251.29V305.56L377.48 319.13V210.58L353.97 197.01L354.11 224.23L330.45 210.58V183.44L306.93 169.87Z" fill="#C9D7EE"/>
<path d="M306.79 169.71L330.59 156.22L354.25 169.71L330.45 183.44L306.79 169.71Z" fill="#DE6C84"/>
<path d="M401 196.89L377.34 183.24L353.97 196.89L377.48 210.46L401 196.89Z" fill="#DE6C84"/>
<path d="M330.45 210.58L353.97 196.89L354.25 169.71L330.45 183.44V210.58Z" fill="#FACDD6"/>
<path d="M377.48 319.13L401 305.56V196.89L377.48 210.46V319.13Z" fill="#FACDD6"/>
<path d="M236.38 210.5L259.9 196.93L306.79 224.07L283.42 237.55L236.38 210.5Z" fill="#DE6C84"/>
<path d="M236.38 169.79L259.9 156.22L306.79 183.36L283.42 196.85L236.38 169.79Z" fill="#DE6C84"/>
<path d="M236.38 156.3V237.72L283.42 264.86V237.72L259.76 224.23L259.9 210.58L283.42 224.15V197.01L259.9 183.44V169.87L283.42 183.44V156.3L236.38 129.16V156.3Z" fill="#C9D7EE"/>
<path d="M283.42 237.72L306.79 224.23V251.2L283.42 264.86V237.72Z" fill="#FACDD6"/>
<path d="M283.42 196.93L306.79 183.44V210.42L283.42 224.07V196.93Z" fill="#FACDD6"/>
<path d="M283.42 156.22L306.79 142.73V169.71L283.42 183.36V156.22Z" fill="#FACDD6"/>
<path d="M236.38 129.16L259.9 115.59L306.79 142.73L283.42 156.22L236.38 129.16Z" fill="#DE6C84"/>
<path d="M165.9 88.37L189.42 74.8V183.28L165.76 197.01L165.9 88.37Z" fill="#FACDD6"/>
<path d="M142.31 20.61V183.44L165.83 197.01V115.59L189.35 129.16V210.58L212.72 224.23L212.87 115.59L165.83 88.46V34.67L142.31 20.61Z" fill="#C9D7EE"/>
<path d="M212.87 115.59L236.38 102.03V210.5L212.72 224.23L212.87 115.59Z" fill="#FACDD6"/>
<path d="M165.83 34.67L189.35 20.61L189.42 74.85L165.83 88.46V34.67Z" fill="#FACDD6"/>
<path d="M165.83 88.46L189.42 74.85L236.38 102.03L212.87 115.59L165.83 88.46Z" fill="#DE6C84"/>
<path d="M142.31 20.61L165.76 7L189.35 20.61L165.83 34.67L142.31 20.61Z" fill="#DE6C84"/>
</g>
<g opacity="0.3">
<path d="M330.38 237.62L306.72 223.97L283.35 237.62L306.86 251.19L330.38 237.62Z" fill="#DE6C84"/>
<path d="M259.83 196.87L259.69 251.23L306.86 278.29V332.56L330.38 346.13V237.58L306.86 224.01L307 251.23L283.35 237.58V210.44L259.83 196.87Z" fill="#C9D7EE"/>
<path d="M259.69 196.71L283.49 183.22L307.15 196.71L283.35 210.44L259.69 196.71Z" fill="#DE6C84"/>
<path d="M353.89 223.89L330.24 210.23L306.86 223.89L330.38 237.45L353.89 223.89Z" fill="#DE6C84"/>
<path d="M283.35 237.58L306.86 223.89L307.15 196.71L283.35 210.44V237.58Z" fill="#FACDD6"/>
<path d="M330.38 346.13L353.89 332.56V223.89L330.38 237.45V346.13Z" fill="#FACDD6"/>
<path d="M189.28 237.5L212.79 223.93L259.69 251.07L236.31 264.55L189.28 237.5Z" fill="#DE6C84"/>
<path d="M189.28 196.79L212.79 183.22L259.69 210.36L236.31 223.84L189.28 196.79Z" fill="#DE6C84"/>
<path d="M189.28 183.3V264.72L236.31 291.85V264.72L212.65 251.23L212.79 237.58L236.31 251.15V224.01L212.79 210.44V196.87L236.31 210.44V183.3L189.28 156.16V183.3Z" fill="#C9D7EE"/>
<path d="M236.31 264.72L259.69 251.23V278.2L236.31 291.85V264.72Z" fill="#FACDD6"/>
<path d="M236.31 223.93L259.69 210.44V237.41L236.31 251.07V223.93Z" fill="#FACDD6"/>
<path d="M236.31 183.22L259.69 169.73V196.71L236.31 210.36V183.22Z" fill="#FACDD6"/>
<path d="M189.28 156.16L212.79 142.59L259.69 169.73L236.31 183.22L189.28 156.16Z" fill="#DE6C84"/>
<path d="M118.8 115.37L142.31 101.8V210.27L118.66 224.01L118.8 115.37Z" fill="#FACDD6"/>
<path d="M95.21 47.61V210.44L118.73 224.01V142.59L142.24 156.16V237.58L165.62 251.23L165.76 142.59L118.73 115.46V61.67L95.21 47.61Z" fill="#C9D7EE"/>
<path d="M165.76 142.59L189.28 129.02V237.5L165.62 251.23L165.76 142.59Z" fill="#FACDD6"/>
<path d="M118.73 61.67L142.24 47.61L142.31 101.85L118.73 115.46V61.67Z" fill="#FACDD6"/>
<path d="M118.73 115.46L142.31 101.85L189.28 129.02L165.76 142.59L118.73 115.46Z" fill="#DE6C84"/>
<path d="M95.21 47.61L118.66 34L142.24 47.61L118.73 61.67L95.21 47.61Z" fill="#DE6C84"/>
</g>
<g opacity="0.5">
<path d="M283.27 263.62L259.61 249.97L236.24 263.62L259.76 277.19L283.27 263.62Z" fill="#DE6C84"/>
<path d="M212.72 222.87L212.58 277.23L259.76 304.29V358.56L283.27 372.13V263.58L259.76 250.01L259.9 277.23L236.24 263.58V236.44L212.72 222.87Z" fill="#C9D7EE"/>
<path d="M212.58 222.7L236.38 209.22L260.04 222.7L236.24 236.44L212.58 222.7Z" fill="#DE6C84"/>
<path d="M306.79 249.88L283.13 236.23L259.76 249.88L283.27 263.45L306.79 249.88Z" fill="#DE6C84"/>
<path d="M236.24 263.58L259.76 249.88L260.04 222.7L236.24 236.44V263.58Z" fill="#FACDD6"/>
<path d="M283.27 372.13L306.79 358.56V249.88L283.27 263.45V372.13Z" fill="#FACDD6"/>
<path d="M142.17 263.49L165.69 249.93L212.58 277.06L189.21 290.55L142.17 263.49Z" fill="#DE6C84"/>
<path d="M142.17 222.79L165.69 209.22L212.58 236.36L189.21 249.84L142.17 222.79Z" fill="#DE6C84"/>
<path d="M142.17 209.3V290.72L189.21 317.85V290.72L165.55 277.23L165.69 263.58L189.21 277.15V250.01L165.69 236.44V222.87L189.21 236.44V209.3L142.17 182.16V209.3Z" fill="#C9D7EE"/>
<path d="M189.21 290.72L212.58 277.23V304.2L189.21 317.85V290.72Z" fill="#FACDD6"/>
<path d="M189.21 249.93L212.58 236.44V263.41L189.21 277.06V249.93Z" fill="#FACDD6"/>
<path d="M189.21 209.22L212.58 195.73V222.7L189.21 236.36V209.22Z" fill="#FACDD6"/>
<path d="M142.17 182.16L165.69 168.59L212.58 195.73L189.21 209.22L142.17 182.16Z" fill="#DE6C84"/>
<path d="M71.69 141.37L95.21 127.8V236.27L71.55 250.01L71.69 141.37Z" fill="#FACDD6"/>
<path d="M48.1 73.61V236.44L71.62 250.01V168.59L95.14 182.16V263.58L118.51 277.23L118.66 168.59L71.62 141.45V87.67L48.1 73.61Z" fill="#C9D7EE"/>
<path d="M118.66 168.59L142.17 155.02V263.49L118.51 277.23L118.66 168.59Z" fill="#FACDD6"/>
<path d="M71.62 87.67L95.14 73.61L95.21 127.85L71.62 141.45V87.67Z" fill="#FACDD6"/>
<path d="M71.62 141.45L95.21 127.85L142.17 155.02L118.66 168.59L71.62 141.45Z" fill="#DE6C84"/>
<path d="M48.1 73.61L71.55 60L95.14 73.61L71.62 87.67L48.1 73.61Z" fill="#DE6C84"/>
</g>
<path d="M236.17 290.62L212.51 276.97L189.13 290.62L212.65 304.19L236.17 290.62Z" fill="#DE6C84"/>
<path d="M165.62 249.87L165.47 304.23L212.65 331.28V385.56L236.17 399.13V290.58L212.65 277.01L212.79 304.23L189.13 290.58V263.44L165.62 249.87Z" fill="#C9D7EE"/>
<path d="M165.47 249.7L189.28 236.22L212.94 249.7L189.13 263.44L165.47 249.7Z" fill="#DE6C84"/>
<path d="M259.69 276.88L236.03 263.23L212.65 276.88L236.17 290.45L259.69 276.88Z" fill="#DE6C84"/>
<path d="M189.13 290.58L212.65 276.88L212.94 249.7L189.13 263.44V290.58Z" fill="#FACDD6"/>
<path d="M236.17 399.13L259.69 385.56V276.88L236.17 290.45V399.13Z" fill="#FACDD6"/>
<path d="M236.17 290.62L212.51 276.97L189.13 290.62L212.65 304.19" stroke="white" stroke-miterlimit="10"/>
<path d="M165.62 249.87L165.47 304.23L212.65 331.28V385.56L236.17 399.13V290.58L212.65 277.01L212.79 304.23L189.13 290.58V263.44L165.62 249.87Z" stroke="white" stroke-miterlimit="10"/>
<path d="M165.47 249.7L189.28 236.22L212.94 249.7L189.13 263.44L165.47 249.7Z" stroke="white" stroke-miterlimit="10"/>
<path d="M259.69 276.88L236.03 263.23L212.65 276.88L236.17 290.45L259.69 276.88Z" stroke="white" stroke-miterlimit="10"/>
<path d="M189.13 290.58L212.65 276.88L212.94 249.7L189.13 263.44V290.58Z" stroke="white" stroke-miterlimit="10"/>
<path d="M236.17 399.13L259.69 385.56V276.88L236.17 290.45V399.13Z" stroke="white" stroke-miterlimit="10"/>
<path d="M95.07 290.49L118.58 276.93L165.47 304.06L142.1 317.55L95.07 290.49Z" fill="#DE6C84"/>
<path d="M95.07 249.79L118.58 236.22L165.47 263.36L142.1 276.84L95.07 249.79Z" fill="#DE6C84"/>
<path d="M95.07 236.3V317.71L142.1 344.85V317.71L118.44 304.23L118.58 290.58L142.1 304.15V277.01L118.58 263.44V249.87L142.1 263.44V236.3L95.07 209.16V236.3Z" fill="#C9D7EE"/>
<path d="M142.1 317.71L165.47 304.23V331.2L142.1 344.85V317.71Z" fill="#FACDD6"/>
<path d="M142.1 276.93L165.47 263.44V290.41L142.1 304.06V276.93Z" fill="#FACDD6"/>
<path d="M142.1 236.22L165.47 222.73V249.7L142.1 263.36V236.22Z" fill="#FACDD6"/>
<path d="M95.07 209.16L118.58 195.59L165.47 222.73L142.1 236.22L95.07 209.16Z" fill="#DE6C84"/>
<path d="M153.84 297.33L165.47 304.06L142.1 317.55" stroke="white" stroke-miterlimit="10"/>
<path d="M153.82 256.61L165.47 263.36L142.1 276.84" stroke="white" stroke-miterlimit="10"/>
<path d="M95.07 236.3V317.71L142.1 344.85V317.71L118.44 304.23L118.58 290.58L142.1 304.15V277.01L118.58 263.44V249.87L142.1 263.44V236.3L95.07 209.16V236.3Z" stroke="white" stroke-miterlimit="10"/>
<path d="M142.1 317.71L165.47 304.23V331.2L142.1 344.85V317.71Z" stroke="white" stroke-miterlimit="10"/>
<path d="M142.1 276.93L165.47 263.44V290.41L142.1 304.06V276.93Z" stroke="white" stroke-miterlimit="10"/>
<path d="M142.1 236.22L165.47 222.73V249.7L142.1 263.36V236.22Z" stroke="white" stroke-miterlimit="10"/>
<path d="M95.07 209.16L118.58 195.59L165.47 222.73L142.1 236.22L95.07 209.16Z" stroke="white" stroke-miterlimit="10"/>
<path d="M24.59 168.37L48.1 154.8V263.27L24.45 277.01L24.59 168.37Z" fill="#FACDD6"/>
<path d="M1 100.61V263.44L24.52 277.01V195.59L48.03 209.16V290.58L71.41 304.23L71.55 195.59L24.52 168.45V114.67L1 100.61Z" fill="#C9D7EE"/>
<path d="M71.55 195.59L95.07 182.02V290.49L71.41 304.23L71.55 195.59Z" fill="#FACDD6"/>
<path d="M24.52 114.67L48.03 100.61L48.1 154.85L24.52 168.45V114.67Z" fill="#FACDD6"/>
<path d="M24.52 168.45L48.1 154.85L95.07 182.02L71.55 195.59L24.52 168.45Z" fill="#DE6C84"/>
<path d="M1 100.61L24.45 87L48.03 100.61L24.52 114.67L1 100.61Z" fill="#DE6C84"/>
<path d="M24.55 195.59L48.03 209.16L48.1 263.27L24.45 277.01L24.55 195.59Z" stroke="white" stroke-miterlimit="10"/>
<path d="M1 100.61V263.44L24.52 277.01V195.59L48.03 209.16V290.58L71.41 304.23L71.55 195.59L24.52 168.45V114.67L1 100.61Z" stroke="white" stroke-miterlimit="10"/>
<path d="M71.55 195.59L95.07 182.02V290.49L71.41 304.23L71.55 195.59Z" stroke="white" stroke-miterlimit="10"/>
<path d="M24.52 114.67L48.03 100.61L48.1 154.85L24.52 168.45V114.67Z" stroke="white" stroke-miterlimit="10"/>
<path d="M24.52 168.45L48.1 154.85L95.07 182.02L71.55 195.59L24.52 168.45Z" stroke="white" stroke-miterlimit="10"/>
<path d="M1 100.61L24.45 87L48.03 100.61L24.52 114.67L1 100.61Z" stroke="white" stroke-miterlimit="10"/>
</svg>
